<svg width="1920" height="1080" viewBox="0 0 1920 1080" fill="none" xmlns="http://www.w3.org/2000/svg">
  <rect width="1920" height="1080" fill="#141414"/>
  <g opacity="0.95">
    <path d="M49 50H860L668 121H151L49 50Z" fill="#242424"/>
    <path d="M879 119L1680 49L1034 148L879 119Z" fill="#232323"/>
    <path d="M1753 50L1869 834L1717 789L1717 111L1487 192L1454 82L1753 50Z" fill="#262626"/>
    <path d="M51 1029L307 804L436 839L52 1030L51 1029Z" fill="#222222"/>
    <path d="M1724 777L1870 912L1674 1002L1724 777Z" fill="#202020"/>
    <path d="M1258 812L1467 927L1292 1039H1215L1258 812Z" fill="#1A1A1A"/>
    <path d="M51 442L146 377L149 526L51 442Z" fill="#202020"/>
    <path d="M1174 241L1391 196L1330 664L1174 241Z" fill="#242424"/>
    <path d="M627 241H1138L998 303H638L627 241Z" fill="#1E1E1E"/>
  </g>
  <g opacity="0.72" fill="#0E0E0E">
    <path d="M120 152C244 146 378 148 484 194C564 229 566 286 492 318C381 365 254 310 161 240L120 152Z"/>
    <path d="M348 451C495 445 673 453 778 524C846 570 831 632 758 657C612 706 448 642 355 542L348 451Z"/>
    <path d="M638 663C784 650 985 657 1096 731C1153 769 1147 827 1088 860C950 936 754 893 670 793L638 663Z"/>
    <path d="M1030 244C1157 235 1329 240 1428 297C1478 326 1483 375 1438 409C1322 497 1115 456 1044 360L1030 244Z"/>
    <path d="M1538 236C1638 232 1758 239 1820 274C1868 301 1860 346 1813 374C1715 434 1572 417 1510 337L1538 236Z"/>
    <path d="M1459 687C1564 682 1708 689 1790 726C1841 749 1846 790 1807 821C1718 892 1568 877 1484 807L1459 687Z"/>
    <path d="M255 889C369 878 500 886 584 927C626 947 632 981 599 1005C526 1059 392 1047 295 1017L255 889Z"/>
  </g>
  <g opacity="0.35" fill="#303030">
    <path d="M963 15C1021 10 1074 29 1084 71C1092 110 1059 141 1007 146C953 152 900 132 892 92C883 50 908 20 963 15Z"/>
    <path d="M845 406C902 399 955 421 967 462C980 505 945 540 889 546C833 553 780 529 769 489C758 448 788 414 845 406Z"/>
    <path d="M1559 392C1624 383 1685 407 1697 451C1708 493 1672 530 1606 538C1544 546 1482 522 1470 478C1459 435 1492 400 1559 392Z"/>
    <path d="M1128 688C1193 681 1255 703 1269 744C1283 787 1247 824 1181 831C1115 839 1054 817 1041 775C1028 733 1061 696 1128 688Z"/>
  </g>
</svg>
